<svg xmlns="http://www.w3.org/2000/svg" xmlns:xlink="http://www.w3.org/1999/xlink" width="500" zoomAndPan="magnify" viewBox="0 0 375 374.999991" height="500" preserveAspectRatio="xMidYMid meet" version="1.0"><path fill="#231815" d="M 108.320312 246.042969 C 107.4375 261.386719 98.5 271.195312 85.425781 277.253906 C 62.53125 287.871094 39.671875 287.277344 17.660156 274.496094 C 8.96875 269.449219 2.816406 262.023438 0.492188 251.917969 C 0.414062 251.574219 0.339844 251.273438 -0.0585938 251.1875 C -0.0585938 247.796875 -0.0585938 244.40625 -0.0585938 241.015625 C 1.058594 240.039062 0.832031 238.570312 1.222656 237.339844 C 4.691406 226.421875 11.886719 218.449219 21.148438 212.140625 C 26.429688 208.542969 32.191406 205.914062 38.394531 204.320312 C 39.734375 203.976562 40.3125 203.574219 40.035156 201.960938 C 34.042969 167.515625 40.707031 135.5625 59.285156 106.054688 C 60.851562 103.566406 60.761719 102.285156 58.796875 99.992188 C 45.050781 83.964844 43.421875 65.914062 52.40625 47.460938 C 64.046875 23.550781 83.433594 8.621094 109.933594 4.863281 C 130.894531 1.894531 151.828125 10.207031 163.265625 32.855469 C 164.234375 34.773438 165.160156 35.296875 167.273438 34.878906 C 193.414062 29.714844 219.480469 30.214844 245.402344 36.328125 C 247.882812 36.914062 248.902344 36.59375 250.042969 34.164062 C 262.925781 6.738281 290.363281 0.101562 312.515625 6.476562 C 335.441406 13.070312 352.539062 27.191406 362.328125 49.109375 C 371.613281 69.917969 366.796875 90.3125 349.777344 105.476562 C 348.050781 107.007812 347.871094 107.949219 349.058594 109.953125 C 363.15625 133.675781 369.40625 159.359375 367.816406 186.902344 C 367.550781 191.542969 366.890625 196.171875 366.15625 200.765625 C 365.886719 202.445312 366.328125 202.664062 367.808594 202.933594 C 385.171875 206.132812 399.066406 214.566406 408.136719 230.058594 C 410.464844 234.03125 411.914062 238.355469 412.304688 242.988281 C 412.84375 245.015625 412.042969 247.136719 412.734375 249.152344 C 412.734375 249.492188 412.734375 249.832031 412.734375 250.171875 C 412.601562 250.246094 412.355469 250.300781 412.335938 250.402344 C 409.613281 263.902344 400.835938 272.554688 388.839844 277.742188 C 364.792969 288.128906 341.1875 287.304688 319.0625 272.40625 C 309.925781 266.257812 304.523438 257.425781 304.242188 246.019531 C 303.40625 244.953125 303.6875 243.765625 303.875 242.601562 C 306.007812 229.378906 313.566406 219.765625 324.203125 212.234375 C 331.957031 206.746094 340.628906 203.539062 350.003906 202.121094 C 353.980469 201.515625 353.980469 201.480469 354.71875 197.566406 C 356.359375 188.847656 356.148438 180.039062 356.035156 171.234375 C 356.035156 170.980469 355.957031 170.742188 355.558594 170.5 C 353.8125 171.660156 352.320312 173.265625 350.613281 174.589844 C 342.441406 180.929688 333.503906 185.523438 323.140625 187.03125 C 318.335938 187.730469 313.539062 187.847656 308.730469 187.160156 C 304.59375 186.566406 302.257812 183.828125 302.710938 180.109375 C 303.167969 176.351562 306.019531 174.1875 310.546875 174.839844 C 317.957031 175.910156 324.921875 174.484375 331.613281 171.554688 C 340.167969 167.808594 347.011719 161.800781 352.917969 154.65625 C 353.386719 154.089844 353.574219 153.472656 353.410156 152.765625 C 351.871094 146.089844 350.113281 139.484375 347.175781 132.871094 C 335.539062 143.460938 322.816406 151.8125 308.054688 156.804688 C 305.605469 157.742188 303.085938 158.453125 300.523438 158.992188 C 296.757812 159.789062 293.386719 157.683594 292.628906 154.121094 C 291.964844 150.976562 294.238281 147.671875 297.722656 146.789062 C 298.867188 146.496094 300.003906 146.191406 301.136719 145.847656 C 311.578125 142.917969 320.824219 137.660156 329.445312 131.21875 C 332.90625 128.632812 336.167969 125.789062 339.378906 122.890625 C 341.011719 121.410156 341.273438 120.023438 340.105469 118.015625 C 329.777344 100.214844 316.152344 85.457031 299.453125 73.46875 C 278.152344 58.179688 254.355469 49.140625 228.5625 45.082031 C 223.367188 44.265625 218.121094 43.882812 212.894531 43.402344 C 209.648438 43.101562 209.335938 43.445312 209.320312 46.597656 C 209.308594 48.125 209.308594 49.652344 209.320312 51.175781 C 209.34375 54.460938 209.535156 54.613281 212.746094 54.695312 C 223.152344 54.957031 233.335938 56.511719 243.191406 59.976562 C 244.390625 60.398438 245.585938 60.832031 246.621094 61.601562 C 249.042969 63.398438 249.902344 66.113281 248.875 68.773438 C 247.75 71.714844 245.457031 73.121094 242.277344 72.753906 C 240.238281 72.519531 238.363281 71.671875 236.429688 71.039062 C 228.707031 68.515625 220.761719 67.386719 212.664062 67.265625 C 209.351562 67.214844 209.328125 67.296875 209.320312 70.714844 C 209.3125 72.492188 209.394531 74.277344 209.296875 76.050781 C 209.203125 77.898438 209.949219 78.511719 211.804688 78.644531 C 218.898438 79.144531 226.015625 79.542969 232.988281 81.144531 C 236.710938 82.003906 240.378906 83.035156 243.972656 84.34375 C 246.019531 85.09375 247.75 86.222656 248.691406 88.324219 C 250.523438 92.410156 247.851562 96.652344 243.382812 96.746094 C 241.738281 96.785156 240.179688 96.429688 238.65625 95.863281 C 230.621094 92.875 222.195312 91.945312 213.742188 91.183594 C 213.320312 91.148438 212.894531 91.15625 212.46875 91.160156 C 209.675781 91.1875 209.363281 91.460938 209.328125 94.179688 C 209.289062 96.976562 209.351562 99.773438 209.304688 102.570312 C 209.238281 106.535156 206.691406 109.363281 203.261719 109.34375 C 199.835938 109.324219 197.328125 106.5 197.257812 102.519531 C 197.210938 99.636719 197.242188 96.757812 197.25 93.875 C 197.253906 92.226562 196.566406 91.621094 194.890625 91.835938 C 186.136719 92.964844 177.414062 94.238281 168.917969 96.71875 C 166.148438 97.527344 163.570312 97.574219 161.386719 95.292969 C 158.648438 92.433594 159.171875 87.988281 162.53125 85.867188 C 163.761719 85.089844 165.125 84.617188 166.527344 84.257812 C 175.253906 82.046875 184.074219 80.355469 193.054688 79.582031 C 197.097656 79.234375 197.25 79.082031 197.25 74.988281 C 197.253906 73.378906 197.1875 71.765625 197.265625 70.160156 C 197.359375 68.191406 196.371094 67.578125 194.601562 67.808594 C 191.492188 68.207031 188.367188 68.53125 185.273438 69.046875 C 179.835938 69.953125 174.425781 70.992188 169.117188 72.519531 C 166.21875 73.351562 163.328125 73.511719 161.144531 70.929688 C 158.023438 67.234375 159.710938 62.339844 164.75 60.761719 C 169.6875 59.21875 174.753906 58.148438 179.855469 57.242188 C 184.785156 56.371094 189.738281 55.691406 194.722656 55.246094 C 196.53125 55.082031 197.316406 54.382812 197.261719 52.566406 C 197.203125 50.363281 197.15625 48.15625 197.277344 45.957031 C 197.390625 43.929688 196.527344 43.179688 194.582031 43.34375 C 189.179688 43.785156 183.765625 44.136719 178.398438 44.9375 C 156.15625 48.253906 135.234375 55.355469 116.023438 67.125 C 95.1875 79.882812 78.210938 96.535156 66.042969 117.835938 C 62.5625 123.929688 62.398438 123.035156 67.652344 127.464844 C 77.085938 135.417969 87.457031 141.695312 99.289062 145.429688 C 101.019531 146.109375 102.875 146.382812 104.628906 146.984375 C 108.230469 148.222656 109.8125 151.179688 108.828125 154.746094 C 107.957031 157.914062 104.753906 159.734375 101.246094 158.9375 C 98.621094 158.339844 95.972656 157.789062 93.445312 156.816406 C 81.328125 152.523438 70.421875 146.125 60.535156 137.9375 C 60.140625 137.613281 59.730469 137.3125 59.351562 136.976562 C 58.019531 135.804688 57.375 136.351562 56.824219 137.804688 C 55.976562 140.027344 55.269531 142.285156 54.625 144.570312 C 53.640625 148.078125 52.78125 151.617188 51.960938 155.167969 C 51.578125 156.828125 52.042969 158.066406 53.207031 159.292969 C 61.421875 167.9375 71.136719 173.660156 83.171875 175.023438 C 85.558594 175.292969 87.894531 175.195312 90.261719 174.871094 C 93.507812 174.429688 96.574219 174.609375 98.414062 177.992188 C 100.5 181.828125 98.148438 186.398438 93.515625 187.097656 C 83.792969 188.5625 74.429688 187.128906 65.460938 183.175781 C 60.640625 181.050781 56.109375 178.390625 51.921875 175.167969 C 51.410156 174.773438 50.890625 173.984375 50.207031 174.308594 C 49.445312 174.667969 49.59375 175.636719 49.546875 176.363281 C 49.273438 180.691406 50 184.976562 50.1875 189.285156 C 50.320312 192.480469 50.984375 195.667969 51.425781 198.851562 C 51.71875 200.941406 52.640625 201.738281 54.757812 201.710938 C 68.9375 201.535156 81.367188 206.425781 92.199219 215.304688 C 100.027344 221.722656 105.921875 229.589844 108.105469 239.769531 C 108.550781 241.851562 108.78125 243.933594 108.320312 246.042969 Z M 108.320312 246.042969 " fill-opacity="1" fill-rule="evenodd"/><path fill="#f8bf01" d="M 352.574219 202.472656 C 354.164062 202.28125 354.628906 201.792969 354.90625 200.28125 C 356.492188 191.753906 357.0625 183.160156 356.769531 174.5 C 356.710938 172.6875 356.96875 170.824219 356.246094 168.707031 C 353.078125 171.75 349.945312 174.441406 346.527344 176.769531 C 335.371094 184.371094 323.210938 188.214844 309.601562 186.597656 C 308.761719 186.5 307.910156 186.386719 307.113281 186.132812 C 304.402344 185.265625 302.90625 182.84375 303.285156 180.039062 C 303.660156 177.277344 305.816406 175.320312 308.703125 175.347656 C 312 175.378906 315.253906 176.054688 318.585938 175.703125 C 331.792969 174.296875 341.9375 167.464844 350.863281 158.140625 C 353.726562 155.148438 354.585938 152.417969 353.207031 148.417969 C 351.300781 142.878906 349.902344 137.164062 347.386719 131.636719 C 335.757812 142.675781 322.757812 151.039062 307.835938 156.300781 C 306.988281 157.417969 307.167969 158.730469 307.207031 159.980469 C 307.363281 165.871094 304.746094 170.449219 300.414062 174.136719 C 291.902344 181.371094 281.875 183.195312 271.09375 182.023438 C 266.761719 181.554688 262.644531 180.269531 258.695312 178.402344 C 256.429688 177.328125 255.9375 177.695312 255.808594 180.28125 C 255.75 181.464844 255.898438 182.660156 255.558594 183.820312 C 254.761719 191.144531 252.234375 197.789062 247.890625 203.75 C 241.472656 212.558594 232.820312 218.234375 222.667969 221.828125 C 221.425781 222.609375 220.597656 223.824219 219.585938 224.835938 C 210.21875 234.164062 194.628906 234.703125 184.609375 226.113281 C 182.925781 224.667969 181.8125 222.699219 179.929688 221.492188 C 170.648438 218.453125 162.957031 213.03125 156.796875 205.550781 C 150.167969 197.496094 147.246094 188.117188 147.648438 177.703125 C 147.234375 175.523438 145.953125 176.28125 144.835938 176.941406 C 137.914062 181.042969 130.40625 182.746094 122.417969 182.332031 C 113.972656 181.894531 106.175781 179.523438 99.867188 173.660156 C 96.039062 170.101562 93.53125 165.738281 93.75 160.207031 C 93.804688 158.871094 94.050781 157.496094 93.546875 156.175781 C 80.652344 151.523438 69.105469 144.59375 58.796875 135.585938 C 57.5 134.453125 57.136719 134.863281 56.636719 136.222656 C 54.21875 142.832031 52.429688 149.597656 51.023438 156.484375 C 50.804688 157.546875 51.128906 158.222656 51.816406 158.957031 C 57.753906 165.289062 64.582031 170.335938 72.789062 173.324219 C 78.503906 175.402344 84.394531 176.375 90.503906 175.511719 C 92.078125 175.289062 93.691406 175.03125 95.257812 175.746094 C 97.566406 176.804688 98.96875 179.324219 98.542969 181.757812 C 98.042969 184.574219 95.972656 186.171875 92.507812 186.585938 C 78.90625 188.226562 66.703125 184.527344 55.53125 176.914062 C 53.46875 175.511719 51.496094 173.972656 49.28125 172.347656 C 48.625 181.996094 49.484375 191.238281 51.035156 200.4375 C 51.273438 201.832031 51.761719 202.296875 53.347656 202.222656 C 56.636719 202.066406 59.9375 202.363281 63.214844 202.851562 C 85.734375 206.210938 107.824219 224.6875 108.320312 246.035156 C 173.628906 246.027344 238.933594 246.023438 304.242188 246.015625 C 304.484375 238.691406 306.851562 232.0625 311.109375 226.160156 C 321.3125 212.003906 335.429688 204.527344 352.574219 202.472656 Z M 352.574219 202.472656 " fill-opacity="1" fill-rule="evenodd"/><path fill="#f8bf01" d="M 63.285156 121.316406 C 62.425781 122.921875 62.363281 123.851562 63.851562 125.117188 C 66.828125 127.640625 69.75 130.222656 72.914062 132.503906 C 80.992188 138.328125 89.515625 143.304688 99.203125 146 C 100.523438 146.347656 101.453125 145.527344 102.433594 144.910156 C 104.074219 143.878906 105.617188 142.695312 107.429688 141.933594 C 120.128906 136.609375 132.570312 136.988281 144.742188 143.578125 C 146.109375 143.898438 147.570312 143.71875 147.96875 142.355469 C 148.394531 140.894531 146.746094 140.597656 145.761719 140.035156 C 145.398438 139.824219 144.976562 139.722656 144.59375 139.546875 C 140.070312 137.425781 135.433594 135.554688 130.992188 133.277344 C 128.238281 131.867188 127.347656 129.398438 128.421875 127.191406 C 129.558594 124.871094 132.214844 124.09375 134.992188 125.371094 C 143.449219 129.265625 151.929688 133.105469 160.390625 136.996094 C 162.570312 138 164.945312 138.882812 165.007812 141.785156 C 165.074219 144.925781 162.570312 145.851562 160.261719 147.042969 C 157.894531 148.261719 155.117188 148.851562 153.371094 151.121094 C 153.648438 153.09375 153.8125 155.117188 155.734375 156.339844 C 156.777344 156.261719 157.390625 155.542969 157.972656 154.8125 C 161.125 150.839844 165.097656 147.789062 169.375 145.207031 C 182.515625 137.273438 196.792969 134.800781 211.878906 137.164062 C 223.984375 139.054688 234.746094 143.832031 243.371094 152.816406 C 244.007812 153.480469 244.652344 154.183594 245.65625 154.3125 C 247.90625 152.941406 248.753906 150.640625 249.613281 148.351562 C 249.203125 147.152344 248.050781 146.859375 247.101562 146.363281 C 245.167969 145.351562 243.839844 144.015625 243.898438 141.632812 C 243.953125 139.390625 245.398438 138.359375 247.171875 137.546875 C 251.941406 135.363281 256.71875 133.183594 261.492188 130.996094 C 265.492188 129.164062 269.460938 127.253906 273.527344 125.570312 C 276.933594 124.167969 279.210938 124.730469 280.34375 127.113281 C 281.578125 129.714844 280.550781 131.863281 277.253906 133.535156 C 275.742188 134.300781 274.21875 135.046875 272.664062 135.714844 C 271.78125 136.09375 270.636719 136.3125 270.65625 137.660156 C 272.515625 139.160156 274.714844 138.453125 276.734375 138.421875 C 284.933594 138.304688 292.367188 140.496094 299 145.335938 C 299.695312 145.839844 300.445312 146.179688 301.265625 146.398438 C 301.515625 146.382812 301.785156 146.417969 302.023438 146.34375 C 317.152344 141.605469 329.878906 133 341.167969 122.058594 C 342.308594 120.949219 342.003906 120.0625 341.378906 118.949219 C 334.175781 106.148438 325.207031 94.738281 314.394531 84.785156 C 292.996094 65.089844 267.839844 52.6875 239.546875 46.433594 C 230.011719 44.324219 220.34375 43.167969 210.59375 42.714844 C 209.777344 42.675781 208.699219 42.199219 208.777344 43.910156 C 208.921875 47.125 208.882812 50.351562 208.832031 53.574219 C 208.808594 54.890625 209.289062 55.296875 210.609375 55.332031 C 214.164062 55.429688 217.722656 55.574219 221.265625 55.90625 C 229.308594 56.664062 237.171875 58.3125 244.707031 61.304688 C 248.257812 62.714844 249.632812 65.890625 248.179688 69.0625 C 246.886719 71.882812 243.871094 72.925781 240.382812 71.621094 C 230.898438 68.078125 221.058594 66.695312 211 66.457031 C 209.363281 66.417969 208.742188 66.84375 208.816406 68.558594 C 208.945312 71.519531 208.902344 74.492188 208.828125 77.457031 C 208.792969 78.820312 209.136719 79.390625 210.648438 79.398438 C 216.246094 79.441406 221.820312 79.910156 227.351562 80.792969 C 233.394531 81.757812 239.289062 83.269531 244.988281 85.492188 C 247.257812 86.375 248.550781 88.132812 248.707031 90.511719 C 248.855469 92.703125 247.839844 94.476562 245.929688 95.59375 C 244.015625 96.710938 242.050781 96.378906 240.0625 95.632812 C 230.914062 92.195312 221.375 90.949219 211.675781 90.511719 C 209.519531 90.417969 208.617188 90.886719 208.796875 93.25 C 209.011719 96.199219 208.863281 99.179688 208.839844 102.144531 C 208.816406 106.140625 206.683594 108.660156 203.339844 108.699219 C 199.996094 108.738281 197.757812 106.195312 197.726562 102.261719 C 197.699219 99.125 197.664062 95.984375 197.746094 92.851562 C 197.789062 91.414062 197.402344 90.859375 195.878906 91.089844 C 192.949219 91.53125 189.988281 91.773438 187.058594 92.222656 C 180.441406 93.230469 173.894531 94.539062 167.449219 96.390625 C 164.410156 97.265625 161.484375 95.613281 160.511719 92.769531 C 159.582031 90.039062 160.945312 87.042969 163.730469 85.878906 C 164.742188 85.460938 165.816406 85.1875 166.878906 84.90625 C 176.402344 82.378906 186.09375 80.800781 195.894531 79.914062 C 197.292969 79.785156 197.820312 79.40625 197.75 77.964844 C 197.644531 75.679688 197.722656 73.386719 197.722656 71.097656 C 197.722656 66.683594 197.730469 66.746094 193.292969 67.277344 C 184.621094 68.324219 176.058594 69.890625 167.621094 72.183594 C 164.1875 73.113281 161.265625 71.464844 160.429688 68.367188 C 159.554688 65.140625 161.386719 62.351562 165.214844 61.277344 C 175.109375 58.492188 185.191406 56.703125 195.433594 55.917969 C 197.394531 55.769531 197.835938 55.074219 197.757812 53.296875 C 197.628906 50.335938 197.589844 47.355469 197.785156 44.402344 C 197.890625 42.773438 197.289062 42.542969 195.953125 42.660156 C 192.074219 43 188.179688 43.210938 184.304688 43.617188 C 158.785156 46.292969 135.0625 54.285156 113.378906 68.027344 C 92.128906 81.484375 75.1875 99.039062 63.285156 121.316406 Z M 63.285156 121.316406 " fill-opacity="1" fill-rule="evenodd"/><path fill="#f8bf01" d="M 261.597656 40.957031 C 293.277344 51.78125 319.8125 69.886719 340.191406 96.640625 C 341.09375 97.832031 341.574219 97.824219 342.648438 96.875 C 355.175781 85.746094 358.917969 70.777344 352.746094 55.171875 C 347.152344 41.042969 337.007812 30.863281 324.066406 23.316406 C 315.902344 18.558594 307.167969 15.558594 300.429688 15.535156 C 280.714844 15.707031 268.253906 23.0625 260.46875 38.167969 C 259.613281 39.828125 259.847656 40.359375 261.597656 40.957031 Z M 261.597656 40.957031 " fill-opacity="1" fill-rule="evenodd"/><path fill="#f8bf01" d="M 52.066406 211.984375 C 37.574219 212.480469 25.515625 218.410156 16.269531 229.605469 C 6.996094 240.835938 7.453125 252.9375 17.238281 262.050781 C 19.601562 264.25 22.195312 266.164062 25.054688 267.683594 C 25.574219 267.957031 26.054688 268.628906 26.855469 268.152344 C 26.445312 267.183594 26.015625 266.265625 25.660156 265.324219 C 23.785156 260.375 23.0625 255.324219 24.585938 250.152344 C 25.414062 247.339844 27.742188 245.988281 30.191406 246.710938 C 32.558594 247.414062 33.734375 249.636719 32.953125 252.425781 C 32.148438 255.332031 32.441406 258.125 33.3125 260.917969 C 34.230469 263.863281 35.949219 266.371094 37.5625 268.96875 C 39.871094 272.703125 43.070312 274.402344 47.398438 274.527344 C 49.046875 274.574219 49.367188 274.148438 49.351562 272.617188 C 49.277344 265.671875 49.304688 258.71875 49.320312 251.769531 C 49.328125 248.257812 51.199219 246.085938 54.113281 246.117188 C 56.949219 246.148438 58.679688 248.210938 58.691406 251.671875 C 58.710938 257.941406 58.695312 264.214844 58.695312 270.488281 C 58.695312 275.050781 58.894531 275.179688 63.335938 274.109375 C 64.078125 273.929688 64.496094 273.488281 64.964844 273.007812 C 67.417969 270.515625 69.574219 267.785156 71.152344 264.667969 C 73.09375 260.824219 74.410156 256.863281 73.105469 252.457031 C 72.300781 249.75 73.457031 247.4375 75.785156 246.710938 C 78.226562 245.949219 80.558594 247.28125 81.40625 250.070312 C 82.203125 252.679688 82.472656 255.34375 82.175781 258.097656 C 81.738281 262.175781 80.292969 265.921875 78.28125 269.957031 C 83.363281 267.871094 87.5 265.214844 91.113281 261.726562 C 93.390625 259.527344 95.339844 257.085938 96.648438 254.191406 C 100.546875 245.578125 98.085938 237.8125 92.765625 230.910156 C 82.546875 217.65625 68.746094 211.414062 52.066406 211.984375 Z M 52.066406 211.984375 " fill-opacity="1" fill-rule="evenodd"/><path fill="#f8bf01" d="M 397.132812 230.921875 C 384.792969 215.304688 368.394531 209.363281 348.925781 212.851562 C 336.078125 215.15625 325.546875 221.773438 318.328125 232.875 C 309.574219 246.320312 315.804688 263.484375 331.207031 268.257812 C 330.761719 267.132812 330.347656 266.15625 329.988281 265.160156 C 328.125 260.027344 327.378906 254.816406 329.242188 249.523438 C 330.066406 247.171875 332.253906 246.082031 334.503906 246.6875 C 336.703125 247.273438 337.957031 249.394531 337.496094 251.851562 C 337.277344 253.011719 336.902344 254.121094 336.875 255.335938 C 336.757812 260.441406 339.035156 264.609375 341.765625 268.675781 C 344.109375 272.164062 346.921875 274.527344 351.441406 274.492188 C 353.160156 274.480469 353.773438 274.351562 353.738281 272.449219 C 353.621094 265.585938 353.683594 258.722656 353.695312 251.859375 C 353.703125 248.3125 355.484375 246.152344 358.390625 246.117188 C 361.3125 246.082031 363.058594 248.171875 363.070312 251.804688 C 363.085938 258.074219 363.074219 264.34375 363.074219 270.613281 C 363.074219 274.753906 364.09375 275.457031 368.074219 274 C 368.597656 273.808594 369.070312 273.371094 369.464844 272.953125 C 371.683594 270.609375 373.730469 268.109375 375.242188 265.253906 C 377.460938 261.054688 378.941406 256.742188 377.355469 251.875 C 376.652344 249.722656 378.019531 247.492188 380.054688 246.777344 C 382.246094 246.007812 384.582031 246.988281 385.527344 249.207031 C 386.367188 251.171875 386.652344 253.277344 386.691406 255.40625 C 386.777344 260.492188 385.152344 265.148438 382.628906 270.054688 C 389.464844 267.007812 395.0625 263.238281 399.109375 257.460938 C 399.878906 256.359375 400.558594 255.164062 401.105469 253.9375 C 404.90625 245.398438 402.460938 237.664062 397.132812 230.921875 Z M 397.132812 230.921875 " fill-opacity="1" fill-rule="evenodd"/><path fill="#f8bf01" d="M 70 91.21875 C 73.3125 87.128906 76.882812 83.277344 80.648438 79.613281 C 100.707031 60.078125 124.371094 46.71875 151.144531 38.773438 C 153.222656 38.160156 153.207031 37.617188 152.257812 35.957031 C 142.851562 19.476562 127.417969 13.347656 110.820312 16.054688 C 87.0625 19.929688 69.992188 33.707031 60.925781 56.136719 C 55.46875 69.621094 57.949219 82.382812 67.957031 93.601562 C 68.699219 92.738281 69.371094 91.996094 70 91.21875 Z M 70 91.21875 " fill-opacity="1" fill-rule="evenodd"/><path fill="#f4a33c" d="M 153.609375 151.039062 C 152.652344 150.28125 151.8125 150.949219 151.039062 151.351562 C 147.355469 153.269531 143.457031 154.722656 139.796875 156.6875 C 138.003906 157.648438 136.117188 158.425781 134.214844 159.117188 C 131.304688 160.171875 128.933594 159.019531 128.136719 156.332031 C 127.523438 154.261719 128.589844 152.238281 131 151.027344 C 134.929688 149.046875 138.941406 147.238281 142.914062 145.351562 C 143.785156 144.9375 144.902344 144.691406 145.089844 143.449219 C 144.742188 143.097656 144.453125 142.625 144.039062 142.40625 C 132.683594 136.488281 121.015625 136.234375 109.066406 140.433594 C 105.425781 141.714844 102.613281 144.359375 99.207031 145.996094 C 100.871094 146.851562 102.742188 147.03125 104.5 147.574219 C 107.617188 148.539062 109.191406 151.433594 108.351562 154.550781 C 107.589844 157.378906 104.636719 159.105469 101.589844 158.367188 C 98.890625 157.714844 96.226562 156.914062 93.546875 156.175781 C 91.773438 163.207031 94.03125 169.191406 99.085938 173.875 C 107.710938 181.875 118.320312 183.953125 129.71875 182.757812 C 135.511719 182.148438 140.917969 180.300781 145.808594 177.058594 C 146.945312 176.304688 147.035156 177.117188 147.089844 177.949219 C 148.199219 177.855469 148.097656 176.941406 148.160156 176.242188 C 148.734375 169.9375 151.058594 164.304688 154.609375 159.117188 C 155.214844 158.234375 156.03125 157.386719 155.769531 156.148438 C 155.054688 154.445312 154.332031 152.742188 153.609375 151.039062 Z M 153.609375 151.039062 " fill-opacity="1" fill-rule="evenodd"/><path fill="#f4a33c" d="M 307.835938 156.304688 C 305.320312 157 302.824219 157.769531 300.28125 158.371094 C 296.976562 159.148438 294.054688 157.328125 293.3125 154.160156 C 292.625 151.210938 294.515625 148.292969 297.648438 147.457031 C 298.863281 147.132812 300.058594 146.75 301.265625 146.394531 C 295.40625 140.941406 288.265625 138.539062 280.46875 137.785156 C 277.210938 137.46875 273.902344 138.152344 270.648438 137.4375 C 266.945312 137.496094 264.0625 139.695312 260.96875 141.273438 C 260.039062 141.75 260.574219 142.613281 261.296875 143.074219 C 262.796875 144.039062 264.433594 144.738281 266.050781 145.460938 C 270.144531 147.285156 274.183594 149.226562 278.203125 151.191406 C 280.421875 152.277344 281.191406 154.347656 280.566406 156.496094 C 279.996094 158.46875 278.109375 159.628906 275.8125 159.4375 C 274.6875 159.347656 273.699219 158.867188 272.714844 158.378906 C 266.421875 155.273438 259.980469 152.488281 253.664062 149.429688 C 252.363281 148.804688 251.054688 147.761719 249.398438 148.363281 C 248.191406 150.261719 246.980469 152.164062 245.777344 154.0625 C 245.546875 155.335938 246.484375 156.097656 247.125 156.9375 C 252.527344 164.050781 255.539062 171.953125 255.300781 180.980469 C 255.269531 182.03125 255.023438 183.21875 256.089844 184.023438 C 257.011719 182.222656 256.078125 180.214844 256.648438 178.382812 C 256.886719 178.382812 257.078125 178.324219 257.210938 178.386719 C 267.105469 183.515625 277.445312 184.375 288.125 181.46875 C 293.835938 179.917969 298.777344 177.035156 302.925781 172.699219 C 307.40625 168.019531 308.355469 162.414062 307.835938 156.304688 Z M 307.835938 156.304688 " fill-opacity="1" fill-rule="evenodd"/><path fill="#fafeed" d="M 245.78125 154.066406 C 253.09375 162.722656 256.800781 172.617188 256.09375 184.03125 C 254.230469 204.570312 236.988281 218.074219 222.839844 222.292969 C 222.710938 222.070312 222.574219 221.78125 222.703125 221.578125 C 224.921875 218.039062 225.9375 213.824219 229.316406 210.917969 C 234.160156 206.746094 236.40625 201.066406 237.382812 194.917969 C 237.757812 192.558594 238.75 190.910156 240.535156 189.398438 C 244.75 185.824219 247.621094 181.445312 247.667969 175.671875 C 247.703125 171.910156 247.058594 171.167969 243.3125 170.421875 C 242.894531 170.339844 242.484375 170.253906 242.105469 170.046875 C 241.15625 169.363281 240.9375 168.226562 240.378906 167.296875 C 236.132812 160.175781 229.535156 157.027344 221.578125 156.269531 C 219.070312 156.03125 216.542969 156.371094 214.019531 156.269531 C 205.667969 152.632812 197.324219 152.472656 188.996094 156.363281 C 186.640625 156.894531 184.308594 156.152344 181.945312 156.207031 C 172.289062 156.425781 164.769531 160.132812 160.253906 168.996094 C 160.058594 169.378906 159.804688 169.710938 159.476562 169.984375 C 155.289062 171.660156 154.785156 172.546875 155.316406 177.082031 C 155.925781 182.269531 158.5625 186.320312 162.507812 189.519531 C 164.367188 191.023438 165.273438 192.78125 165.601562 195.09375 C 166.53125 201.710938 169.597656 207.164062 174.425781 211.84375 C 177.25 214.574219 178.839844 218.257812 179.882812 222.089844 C 165.269531 217.574219 146.664062 202.644531 147.113281 179.980469 C 147.128906 179.304688 147.101562 178.628906 147.09375 177.949219 C 147.894531 171.609375 149.625 165.585938 153.132812 160.164062 C 154 158.816406 154.894531 157.488281 155.773438 156.148438 C 164.710938 145.554688 176.109375 139.078125 189.691406 136.8125 C 211.179688 133.230469 230.222656 138.144531 245.78125 154.066406 Z M 245.78125 154.066406 " fill-opacity="1" fill-rule="evenodd"/><path fill="#feeab2" d="M 242.277344 169.992188 C 240.457031 171.003906 239.285156 172.445312 239.261719 174.613281 C 239.222656 178.214844 237.363281 180.84375 234.703125 182.988281 C 228.34375 188.125 217.535156 188.210938 211.019531 183.222656 C 208.054688 180.953125 206.246094 178.082031 206.0625 174.238281 C 205.929688 171.589844 203.964844 169.816406 201.445312 169.8125 C 199.058594 169.808594 197.007812 171.539062 196.890625 174.011719 C 196.632812 179.273438 193.769531 182.78125 189.25 184.761719 C 182.761719 187.605469 176.148438 187.917969 169.820312 184.09375 C 166.328125 181.980469 163.886719 179.050781 163.660156 174.777344 C 163.507812 171.890625 162.039062 170.277344 159.269531 169.730469 C 162.71875 161.304688 171.191406 155.613281 180.378906 155.558594 C 183.152344 155.542969 185.929688 155.4375 188.660156 156.089844 C 192.460938 159.15625 196.191406 162.3125 199.832031 165.5625 C 201.097656 166.691406 201.914062 166.78125 203.226562 165.65625 C 206.9375 162.476562 210.507812 159.136719 214.296875 156.050781 C 219.011719 154.984375 223.75 155.171875 228.21875 156.828125 C 234.667969 159.214844 240.042969 162.996094 242.277344 169.992188 Z M 242.277344 169.992188 " fill-opacity="1" fill-rule="evenodd"/><path fill="#000000" d="M 242.277344 169.992188 C 239.96875 170.476562 238.914062 171.730469 238.542969 174.921875 C 238.113281 178.679688 236.203125 181.5 233.074219 183.355469 C 226.1875 187.425781 219.007812 187.371094 212.136719 183.136719 C 208.984375 181.191406 207.25 178.308594 206.746094 174.636719 C 206.300781 171.355469 204.355469 169.332031 201.691406 169.222656 C 198.9375 169.113281 196.753906 171.109375 196.257812 174.511719 C 195.804688 177.613281 194.355469 180.019531 192.082031 182.125 C 189.222656 184.765625 185.683594 185.582031 182.0625 186.03125 C 176.082031 186.769531 170.832031 185.105469 166.699219 180.542969 C 164.910156 178.5625 164.5 176.027344 163.964844 173.527344 C 163.34375 170.648438 162 169.613281 159.269531 169.730469 C 155.417969 170.339844 154.050781 172.171875 154.398438 175.949219 C 154.933594 181.746094 157.539062 186.46875 162.082031 189.941406 C 163.910156 191.335938 164.511719 192.886719 164.839844 194.9375 C 165.957031 201.902344 168.785156 207.988281 174.394531 212.535156 C 175 213.027344 175.4375 213.554688 175.730469 214.300781 C 176.796875 217.0625 178.277344 219.609375 179.882812 222.089844 C 182.894531 225.925781 186.464844 229.015625 191.050781 230.90625 C 200.125 234.660156 213.828125 233.785156 222.839844 222.296875 C 224.460938 219.628906 226.160156 217.007812 227.214844 214.039062 C 227.421875 213.460938 227.808594 213.054688 228.292969 212.679688 C 234.316406 207.96875 237.144531 201.519531 238.179688 194.171875 C 238.421875 192.441406 239.117188 191.320312 240.5 190.257812 C 245.128906 186.695312 247.953125 182.023438 248.527344 176.128906 C 248.972656 171.527344 246.875 169.472656 242.277344 169.992188 Z M 242.277344 169.992188 " fill-opacity="1" fill-rule="evenodd"/><path fill="#000000" d="M 165.757812 142.039062 C 165.804688 139.917969 164.761719 138.234375 162.847656 137.355469 C 153.34375 132.988281 143.820312 128.65625 134.261719 124.398438 C 132.125 123.445312 130.0625 124.007812 128.515625 125.769531 C 127.035156 127.457031 126.859375 129.4375 127.851562 131.441406 C 128.519531 132.789062 129.738281 133.542969 131.082031 134.148438 C 136.765625 136.710938 142.433594 139.300781 148.257812 141.945312 C 147.136719 142.738281 146.171875 143.214844 145.089844 143.453125 C 140.445312 145.683594 135.800781 147.910156 131.160156 150.140625 C 127.714844 151.792969 126.410156 154.613281 127.777344 157.453125 C 129.117188 160.234375 132.015625 160.980469 135.417969 159.414062 C 141.480469 156.625 147.546875 153.832031 153.609375 151.042969 C 156.644531 149.578125 159.683594 148.113281 162.71875 146.644531 C 164.640625 145.710938 165.710938 144.136719 165.757812 142.039062 Z M 165.757812 142.039062 " fill-opacity="1" fill-rule="evenodd"/><path fill="#000000" d="M 277.765625 150.171875 C 272.070312 147.527344 266.386719 144.855469 260.300781 142.007812 C 264.023438 140.363281 267.335938 138.902344 270.652344 137.4375 C 273.332031 136.179688 276.039062 134.984375 278.679688 133.644531 C 281.296875 132.308594 282.234375 129.53125 281.074219 126.972656 C 279.921875 124.4375 277.171875 123.25 274.460938 124.453125 C 264.960938 128.679688 255.503906 133.011719 246.039062 137.328125 C 244.074219 138.222656 243.078125 139.828125 243.09375 141.976562 C 243.105469 144.121094 244.109375 145.667969 246.058594 146.613281 C 247.1875 147.164062 248.285156 147.78125 249.398438 148.367188 C 249.953125 148.570312 250.519531 148.730469 251.046875 148.976562 C 258.625 152.511719 266.191406 156.070312 273.769531 159.605469 C 275.738281 160.519531 277.695312 160.609375 279.523438 159.257812 C 281.1875 158.03125 281.722656 156.320312 281.4375 154.332031 C 281.132812 152.148438 279.617188 151.03125 277.765625 150.171875 Z M 277.765625 150.171875 " fill-opacity="1" fill-rule="evenodd"/><path fill="#000000" d="M 200.929688 167.191406 C 201.628906 167.792969 202.023438 167.519531 202.597656 167.011719 C 206.203125 163.832031 209.84375 160.6875 213.480469 157.542969 C 213.949219 157.140625 214.296875 156.699219 214.296875 156.050781 C 213.417969 154.761719 212.042969 154.332031 210.636719 153.976562 C 205.300781 152.609375 199.90625 152.613281 194.511719 153.496094 C 192.367188 153.847656 190.117188 154.113281 188.660156 156.085938 C 188.820312 156.464844 188.875 156.960938 189.152344 157.199219 C 193.0625 160.546875 197.011719 163.847656 200.929688 167.191406 Z M 200.929688 167.191406 " fill-opacity="1" fill-rule="evenodd"/><path fill="#f75b63" d="M 221.265625 207.964844 C 218.800781 221.085938 206.164062 228.800781 194.335938 224.1875 C 187.015625 221.328125 183.335938 215.351562 181.648438 207.953125 C 184.761719 204.25 189.199219 203.226562 193.578125 202.324219 C 202.523438 200.488281 210.902344 202.6875 219.035156 206.304688 C 219.917969 206.695312 220.515625 207.417969 221.265625 207.964844 Z M 221.265625 207.964844 " fill-opacity="1" fill-rule="evenodd"/><path fill="#f78a7d" d="M 221.265625 207.964844 C 216.65625 206.160156 212.160156 204.09375 207.230469 203.128906 C 198.019531 201.335938 189.503906 202.785156 181.648438 207.953125 C 183 203.855469 185.164062 200.113281 186.804688 196.140625 C 187.113281 195.390625 187.769531 195.320312 188.429688 195.121094 C 193.046875 193.738281 197.226562 191.578125 200.511719 187.96875 C 201.34375 187.0625 201.722656 187.308594 202.457031 188.066406 C 205.636719 191.355469 209.460938 193.617188 213.863281 194.894531 C 214.757812 195.152344 215.511719 195.460938 215.957031 196.480469 C 217.65625 200.339844 219.484375 204.140625 221.265625 207.964844 Z M 221.265625 207.964844 " fill-opacity="1" fill-rule="evenodd"/><path fill="#fcfcfc" d="M 227.035156 205.164062 C 225.597656 202.136719 224.246094 199.292969 222.832031 196.320312 C 225.484375 196.082031 227.917969 195.925781 230.277344 195.257812 C 231.207031 194.996094 231.804688 195.132812 231.460938 196.292969 C 230.53125 199.421875 229.425781 202.46875 227.035156 205.164062 Z M 227.035156 205.164062 " fill-opacity="1" fill-rule="evenodd"/><path fill="#fbfbfb" d="M 175.828125 205.078125 C 173.496094 202.433594 172.363281 199.492188 171.492188 196.414062 C 171.125 195.113281 171.714844 195.035156 172.773438 195.269531 C 174.332031 195.613281 175.921875 196.113281 177.484375 196.058594 C 180.101562 195.972656 179.660156 196.988281 178.808594 198.617188 C 177.742188 200.660156 176.867188 202.800781 175.828125 205.078125 Z M 175.828125 205.078125 " fill-opacity="1" fill-rule="evenodd"/></svg>